<?xml version="1.0" encoding="UTF-8" standalone="no"?>
<!DOCTYPE svg PUBLIC "-//W3C//DTD SVG 1.1//EN" "http://www.w3.org/Graphics/SVG/1.1/DTD/svg11.dtd">
<svg width="100%" height="100%" viewBox="0 0 66 106" version="1.1" xmlns="http://www.w3.org/2000/svg" xmlns:xlink="http://www.w3.org/1999/xlink" xml:space="preserve" xmlns:serif="http://www.serif.com/" style="fill-rule:evenodd;clip-rule:evenodd;stroke-linejoin:round;stroke-miterlimit:2;">
    <g id="g27882" transform="matrix(0.986091,0,0,0.986091,-66.473994,-10.7752)">
        <g id="Ink" transform="matrix(1,0,0,1,32.4573,-46.63767)">
            <path id="path2023" d="M34.954,162.017L70.212,164.177L79.087,155.536L70.212,138.976L64.456,138.496L64.456,132.737L63.736,132.497L63.016,132.258L62.057,132.018L59.419,131.778L56.541,131.538L53.663,131.538L51.025,131.778L50.066,132.018L49.346,132.258L48.627,132.977L48.627,138.497L39.992,142.337L34.954,162.017Z"/>
            <path id="path2025" d="M63.016,143.537L69.972,139.218" style="fill:none;fill-rule:nonzero;"/>
            <path id="path2027" d="M69.972,163.697L62.777,143.777L40.471,142.817" style="fill:none;fill-rule:nonzero;"/>
            <path id="path2029" d="M64.456,138.497L64.456,132.737L63.976,132.258L62.057,132.018L59.419,131.778L56.541,131.538L53.663,131.778L51.025,131.778L50.066,132.018L49.346,132.258L48.867,132.497L48.627,132.737L48.627,138.498L48.867,138.738L49.346,138.978L50.066,139.218L51.265,139.457L53.663,139.697L59.659,139.697L62.057,139.457L63.016,139.218L63.975,138.978L64.455,138.738L64.455,138.497" style="fill:none;fill-rule:nonzero;"/>
            <path id="path2031" d="M64.456,132.977L64.216,133.217L63.737,133.456L63.497,133.456L62.777,133.696L62.297,133.937L61.577,133.937L60.857,134.177L60.138,134.177L60.857,134.416L61.337,134.416L62.056,134.656L62.536,134.656L63.015,134.896L63.495,135.136L63.976,135.377L64.456,135.617L64.456,132.977Z" style="fill:rgb(204,204,204);"/>
            <path id="path2033" d="M64.456,132.977L64.216,133.217L63.737,133.456L63.497,133.456L62.777,133.696L62.297,133.937L61.577,133.937L60.857,134.177L60.138,134.177L60.857,134.416L61.337,134.416L62.056,134.656L62.536,134.656L63.015,134.896L63.495,135.136L63.976,135.377L64.456,135.617L64.456,132.977" style="fill:none;fill-rule:nonzero;"/>
            <path id="path2035" d="M48.626,138.737L47.667,139.217L46.467,139.697L45.508,140.177L44.549,140.656L43.35,141.136L42.391,141.615L41.192,142.095L40.231,142.577L43.348,142.577L44.068,142.817L44.547,142.817L44.547,142.337L45.026,141.617L45.266,141.138L45.745,140.658L46.465,140.179L46.944,139.699L47.903,139.22L48.626,138.737Z" style="fill:rgb(204,204,204);"/>
            <path id="path2037" d="M62.777,142.817L63.257,142.817L63.497,143.057L63.737,143.296L63.737,144.256L63.497,144.495L63.257,144.495L63.017,144.735L62.777,144.735L62.537,144.495L62.297,144.495L62.057,144.256L62.057,143.297L62.297,143.058L62.537,142.818L62.777,142.818L62.777,142.817Z" style="fill:rgb(204,204,204);"/>
        </g>
        <g transform="matrix(0.15,0,0,0.15,85,10)">
            <g>
                <path d="M141.108,209.888C154.295,177.28 169.008,144.736 184.796,115.891C161.229,98.387 138.6,60.642 129.303,43.919C125.963,47.713 123.795,52.082 122.813,55.637C114.054,87.262 145.233,125.451 120.12,111.498C99.195,99.871 52.079,74.41 34.107,99.717C54.235,125.579 106.88,190.647 141.108,209.888L141.108,209.888Z" style="fill:rgb(221,85,44);fill-rule:nonzero;"/>
                <path d="M184.796,115.891C200.093,87.942 216.396,63.463 233.297,45.828C233.297,45.828 216.439,70.229 192.361,119.008C206.943,123.024 248.474,131.264 306.321,116.322C307.743,105.809 300.676,94.247 265.458,90.375C242.465,87.851 293.055,35.473 256.406,10.701C255.223,9.9 254.06,9.193 252.92,8.561C251.692,8.12 250.394,7.716 249.009,7.356C206.206,-3.813 200.273,68.765 183.193,53.162C155.592,27.95 138.171,33.841 129.303,43.919C138.6,60.642 161.229,98.387 184.796,115.891Z" style="fill:rgb(247,154,35);fill-rule:nonzero;"/>
                <path d="M106.682,303.838C116.344,274.892 127.968,242.372 141.108,209.888C106.88,190.647 54.235,125.579 34.107,99.717C30.514,104.773 28.058,111.825 27.24,121.469C22.851,173.271 76.292,211.622 65.638,218.627C51.546,227.894 23.497,196.366 12.442,216.398C28.465,236.982 61.104,274.175 106.682,303.838L106.682,303.838Z" style="fill:rgb(210,33,40);fill-rule:nonzero;"/>
                <path d="M254.756,192.118C227.697,182.467 283.032,156.585 301.001,129.127C303.3,125.616 305.677,121.078 306.321,116.322C248.474,131.264 206.943,123.024 192.361,119.008C179.896,144.265 165.502,176.092 150.491,214.466C166.125,221.151 229.961,245.846 320.128,245.973C335.287,206.488 280.437,201.274 254.756,192.118Z" style="fill:rgb(221,85,44);fill-rule:nonzero;"/>
                <path d="M117.137,309.049C133.037,314.004 185.721,328.805 241.674,326.577C249.191,306.225 221.088,304.239 218.799,287.916C217.027,275.286 292.756,298.53 317.122,252.605C318.354,250.282 319.315,248.091 320.128,245.973C229.961,245.846 166.125,221.151 150.491,214.466C139.521,242.51 128.235,273.983 117.137,309.049Z" style="fill:rgb(210,33,40);fill-rule:nonzero;"/>
                <path d="M117.137,309.049C109.992,331.619 102.944,355.731 96.102,381.213C93.675,390.248 91.277,399.451 88.912,408.856C142.018,426.387 190.92,408.896 192.578,387.218C192.592,387.046 192.56,386.919 192.57,386.754C193.834,363.793 159.42,376.52 160.234,362.716C161.052,348.81 220.315,362.635 238.643,332.821C240.048,330.535 240.964,328.505 241.674,326.577C185.721,328.805 133.037,314.004 117.137,309.049L117.137,309.049Z" style="fill:rgb(124,41,125);fill-rule:nonzero;"/>
                <path d="M12.442,216.398C11.668,217.802 10.97,219.424 10.374,221.363C0.082,254.813 72.859,299.748 62.957,309.544C54.032,318.37 42.4,298.2 28.056,306.531C26.484,307.447 24.889,308.601 23.251,310.281C7.03,326.9 22.997,374.777 69.021,400.333C58.281,436.395 47.589,476.684 37.122,518.819C40.919,517.489 45.463,516.156 46.594,512.574C48.292,505.593 58.788,463.112 75.829,405.48C75.829,405.48 78.94,393.674 84.633,374.225C89.898,356.239 97.379,331.71 106.682,303.838C61.104,274.175 28.465,236.982 12.442,216.398Z" style="fill:rgb(124,41,125);fill-rule:nonzero;"/>
            </g>
        </g>
    </g>
</svg>
