<?xml version="1.0" encoding="UTF-8" standalone="no"?>
<!DOCTYPE svg PUBLIC "-//W3C//DTD SVG 1.1//EN" "http://www.w3.org/Graphics/SVG/1.1/DTD/svg11.dtd">
<svg width="100%" height="100%" viewBox="0 0 231 118" version="1.1" xmlns="http://www.w3.org/2000/svg" xmlns:xlink="http://www.w3.org/1999/xlink" xml:space="preserve" xmlns:serif="http://www.serif.com/" style="fill-rule:evenodd;clip-rule:evenodd;stroke-linejoin:round;stroke-miterlimit:2;">
    <g id="g27882" transform="matrix(0.986091,0,0,0.986091,2.658633,-0.386497)">
        <g id="g27875">
            <path id="text5793" d="M13.499,67.639L13.499,81.273C13.499,87.514 13.562,93.116 13.687,98.08C13.813,103.043 14.001,107.389 14.253,111.116C13.247,110.907 12.137,110.75 10.923,110.645C9.708,110.541 8.347,110.488 6.839,110.488C5.331,110.488 3.98,110.541 2.787,110.645C1.593,110.75 0.451,110.907 -0.638,111.116C-0.093,104.834 0.315,98.059 0.588,90.792C0.86,83.524 0.996,75.681 0.996,67.262C0.996,57.838 0.87,49.587 0.619,42.508C0.368,35.429 -0.051,29.021 -0.638,23.282C3.677,23.366 7.897,23.44 12.022,23.502C16.148,23.565 20.2,23.597 24.18,23.597C28.201,23.597 32.106,23.565 35.897,23.502C39.688,23.44 43.363,23.345 46.923,23.22C46.798,23.974 46.704,24.707 46.641,25.419C46.578,26.131 46.546,26.864 46.546,27.618C46.546,28.288 46.588,29.021 46.672,29.817C46.756,30.613 46.84,31.408 46.923,32.204C43.363,31.492 39.813,30.958 36.274,30.602C32.735,30.246 29.227,30.068 25.75,30.068L13.624,30.068C13.583,33.251 13.551,36.298 13.53,39.209C13.509,42.121 13.499,45.063 13.499,48.037L13.499,61.294L26.504,61.294C29.227,61.294 32.065,61.199 35.018,61.011C37.97,60.822 41.101,60.54 44.41,60.163C44.285,61.042 44.211,61.765 44.19,62.33C44.169,62.896 44.159,63.451 44.159,63.995C44.159,64.833 44.222,66.194 44.348,68.079C44.347,68.372 44.347,68.603 44.348,68.77C40.159,68.393 36.557,68.111 33.541,67.922C30.525,67.734 28.054,67.639 26.127,67.639L13.499,67.639ZM105.165,27.241C94.526,27.241 86.285,30.665 80.442,37.513C74.599,44.361 71.678,54.047 71.678,66.571C71.678,79.723 74.547,89.776 80.285,96.729C86.024,103.682 94.317,107.158 105.165,107.158C115.888,107.158 124.139,103.713 129.92,96.823C135.7,89.933 138.59,80.079 138.59,67.262C138.59,54.404 135.7,44.519 129.92,37.607C124.139,30.696 115.888,27.241 105.165,27.241ZM105.291,112.813C90.422,112.813 78.704,108.739 70.139,100.593C61.573,92.446 57.29,81.336 57.29,67.262C57.29,53.105 61.562,41.953 70.107,33.806C78.652,25.66 90.338,21.586 105.165,21.586C120.286,21.586 132.045,25.586 140.443,33.586C148.841,41.587 153.04,52.812 153.041,67.262C153.04,81.545 148.841,92.708 140.443,100.75C132.045,108.792 120.328,112.813 105.291,112.813ZM182.004,66.194C182.465,66.236 182.989,66.268 183.575,66.288C184.161,66.309 185.02,66.32 186.151,66.32C194.738,66.32 201.23,64.624 205.628,61.231C210.026,57.838 212.225,52.812 212.225,46.152C212.225,40.498 210.413,36.1 206.79,32.958C203.167,29.817 198.088,28.246 191.554,28.246C190.633,28.246 189.408,28.277 187.879,28.34C186.35,28.403 184.601,28.518 182.633,28.686C182.423,32.037 182.266,35.209 182.161,38.204C182.057,41.199 182.004,43.848 182.004,46.152L182.004,66.194ZM168.496,111.054C168.957,102.132 169.303,93.315 169.533,84.603C169.763,75.891 169.878,67.262 169.878,58.718C169.878,51.43 169.763,44.875 169.533,39.052C169.303,33.23 168.957,27.911 168.496,23.094C169.92,23.262 171.397,23.387 172.926,23.471C174.454,23.555 176.015,23.597 177.606,23.597C180.203,23.597 183.69,23.513 188.067,23.345C192.444,23.178 195.575,23.094 197.46,23.094C206.759,23.094 213.837,25.031 218.696,28.906C223.555,32.78 225.984,38.403 225.984,45.775C225.984,53.691 222.916,59.953 216.78,64.561C210.644,69.168 202.235,71.472 191.554,71.472C189.209,71.472 187.345,71.461 185.963,71.44C184.58,71.419 183.261,71.409 182.004,71.409L182.004,82.153C182.004,86.76 182.057,91.462 182.161,96.258C182.266,101.053 182.423,106.006 182.633,111.116C181.669,110.907 180.612,110.75 179.46,110.645C178.308,110.541 177.02,110.488 175.596,110.488C174.088,110.488 172.769,110.541 171.638,110.645C170.507,110.75 169.46,110.886 168.496,111.054Z" style="fill:rgb(204,204,204);fill-rule:nonzero;"/>
            <path id="path24337" d="M108.947,24.405C95.478,23.634 82.145,32.202 78.232,45.295C73.996,59.131 74.283,74.828 80.301,88.097C87.539,103.912 108.205,107.672 123.177,101.738C138.191,95.663 142.908,78.03 142.363,63.229C142.577,48.569 136.786,31.42 121.601,26.389C117.549,24.957 113.231,24.404 108.947,24.405Z" style="fill:rgb(204,204,204);fill-rule:nonzero;"/>
            <path id="path17587" d="M108.945,25.917C95.985,25.175 83.157,33.42 79.392,46.017C75.317,59.33 75.593,74.433 81.383,87.199C88.346,102.416 108.231,106.033 122.637,100.325C137.082,94.479 141.621,77.514 141.096,63.273C141.302,49.167 135.73,32.667 121.12,27.826C117.221,26.449 113.067,25.917 108.945,25.917Z" style="fill:url(#_Linear1);fill-rule:nonzero;"/>
            <path id="text17827" d="M17.28,64.803L17.28,78.437C17.28,84.678 17.343,90.28 17.469,95.244C17.594,100.207 17.783,104.553 18.034,108.28C17.029,108.071 15.919,107.914 14.704,107.809C13.49,107.704 12.128,107.652 10.62,107.652C9.113,107.652 7.762,107.704 6.568,107.809C5.374,107.914 4.233,108.071 3.144,108.28C3.688,101.998 4.097,95.223 4.369,87.955C4.641,80.688 4.777,72.845 4.777,64.426C4.777,55.002 4.652,46.751 4.4,39.672C4.149,32.593 3.73,26.185 3.144,20.446C7.458,20.53 11.678,20.604 15.804,20.666C19.929,20.729 23.982,20.761 27.961,20.761C31.982,20.761 35.888,20.729 39.679,20.666C43.469,20.604 47.145,20.509 50.705,20.384C50.579,21.138 50.485,21.871 50.422,22.583C50.359,23.295 50.328,24.028 50.328,24.782C50.328,25.452 50.37,26.185 50.454,26.981C50.537,27.776 50.621,28.572 50.705,29.368C47.145,28.656 43.595,28.122 40.056,27.766C36.516,27.41 33.008,27.232 29.532,27.232L17.406,27.232C17.364,30.415 17.333,33.462 17.312,36.373C17.291,39.285 17.28,42.227 17.28,45.201L17.28,58.458L30.286,58.458C33.008,58.458 35.846,58.363 38.799,58.175C41.752,57.986 44.883,57.704 48.192,57.327C48.066,58.206 47.993,58.929 47.972,59.494C47.951,60.06 47.94,60.615 47.94,61.159C47.94,61.997 48.003,63.358 48.129,65.243C48.129,65.536 48.129,65.767 48.129,65.934C43.94,65.557 40.338,65.274 37.322,65.086C34.307,64.897 31.835,64.803 29.909,64.803L17.28,64.803ZM108.947,24.405C98.308,24.405 90.067,27.829 84.224,34.677C78.381,41.525 75.459,51.211 75.459,63.735C75.459,76.887 78.328,86.94 84.067,93.893C89.805,100.846 98.098,104.322 108.947,104.322C119.669,104.322 127.921,100.877 133.701,93.987C139.481,87.097 142.371,77.243 142.371,64.426C142.371,51.567 139.481,41.682 133.701,34.771C127.921,27.86 119.669,24.405 108.947,24.405ZM109.072,109.977C94.203,109.977 82.486,105.903 73.92,97.757C65.354,89.61 61.072,78.5 61.072,64.426C61.072,50.269 65.344,39.117 73.889,30.97C82.433,22.824 94.119,18.75 108.947,18.75C124.067,18.75 135.827,22.75 144.225,30.75C152.623,38.75 156.822,49.976 156.822,64.426C156.822,78.709 152.623,89.872 144.225,97.914C135.827,105.956 124.109,109.977 109.072,109.977ZM185.786,63.358C186.246,63.4 186.77,63.432 187.357,63.452C187.943,63.473 188.802,63.484 189.932,63.484C198.519,63.484 205.011,61.787 209.409,58.395C213.807,55.002 216.006,49.976 216.006,43.316C216.006,37.661 214.195,33.263 210.572,30.122C206.948,26.981 201.87,25.41 195.336,25.41C194.414,25.41 193.189,25.441 191.66,25.504C190.131,25.567 188.383,25.682 186.414,25.85C186.205,29.201 186.048,32.373 185.943,35.368C185.838,38.363 185.786,41.012 185.786,43.316L185.786,63.358ZM172.278,108.218C172.738,99.296 173.084,90.479 173.314,81.767C173.545,73.055 173.66,64.426 173.66,55.882C173.66,48.594 173.545,42.038 173.314,36.216C173.084,30.394 172.738,25.075 172.278,20.258C173.702,20.426 175.178,20.551 176.707,20.635C178.236,20.719 179.796,20.761 181.388,20.761C183.985,20.761 187.472,20.677 191.849,20.509C196.226,20.342 199.357,20.258 201.242,20.258C210.54,20.258 217.619,22.195 222.478,26.07C227.336,29.944 229.766,35.567 229.766,42.939C229.766,50.855 226.697,57.117 220.561,61.725C214.425,66.332 206.016,68.636 195.336,68.636C192.99,68.636 191.126,68.625 189.744,68.604C188.362,68.583 187.042,68.573 185.786,68.573L185.786,79.317C185.786,83.924 185.838,88.626 185.943,93.422C186.048,98.217 186.205,103.17 186.414,108.28C185.451,108.071 184.393,107.914 183.241,107.809C182.089,107.704 180.801,107.652 179.377,107.652C177.869,107.652 176.55,107.704 175.419,107.809C174.288,107.914 173.241,108.05 172.278,108.218Z" style="fill-rule:nonzero;"/>
            <path id="text5797" d="M111.842,76.313L111.842,79.326L102.045,84.348L111.842,89.356L111.842,92.369L98.919,85.696L98.919,82.958L111.842,76.313ZM116.493,79.161C116.676,76.951 117.184,75.139 118.018,73.727C118.852,72.314 119.817,71.608 120.914,71.608C121.17,71.608 121.419,71.631 121.66,71.677C121.902,71.722 122.147,71.791 122.395,71.883C122.286,72.378 122.174,72.924 122.061,73.52C121.947,74.116 121.821,74.841 121.682,75.694L121.572,75.694C121.273,75.355 120.987,75.105 120.717,74.944C120.446,74.784 120.168,74.703 119.883,74.703C119.503,74.703 119.194,74.82 118.956,75.054C118.718,75.288 118.6,75.593 118.6,75.969C118.6,76.143 118.634,76.364 118.704,76.629C118.773,76.895 118.866,77.157 118.983,77.414L119.751,79.133L120.223,79.133C120.516,79.133 120.795,79.124 121.062,79.106C121.329,79.088 121.587,79.06 121.836,79.023C121.836,79.051 121.832,79.101 121.825,79.175C121.803,79.514 121.792,79.753 121.792,79.89C121.792,80.009 121.803,80.234 121.825,80.564C121.832,80.647 121.836,80.702 121.836,80.729C121.653,80.72 121.459,80.716 121.254,80.716C121.05,80.716 120.757,80.716 120.377,80.716L119.839,80.716L119.839,87.099C119.839,87.741 119.861,88.533 119.905,89.473C119.949,90.413 120.015,91.502 120.102,92.74C119.656,92.694 119.285,92.66 118.989,92.637C118.693,92.614 118.435,92.603 118.216,92.603C118.011,92.603 117.766,92.612 117.481,92.63C117.195,92.649 116.815,92.685 116.34,92.74C116.398,92.034 116.442,91.33 116.471,90.628C116.501,89.927 116.515,89.154 116.515,88.31L116.515,80.716C116.391,80.697 116.272,80.686 116.159,80.681C116.045,80.677 115.923,80.674 115.791,80.674C115.711,80.674 115.539,80.688 115.275,80.716C115.115,80.725 114.987,80.729 114.892,80.729C114.913,80.555 114.93,80.397 114.941,80.255C114.952,80.113 114.957,79.991 114.957,79.89C114.957,79.808 114.952,79.691 114.941,79.539C114.93,79.388 114.917,79.216 114.903,79.023C115.217,79.069 115.506,79.104 115.769,79.127C116.032,79.15 116.274,79.161 116.493,79.161ZM122.296,85.861C122.296,83.596 122.814,81.823 123.849,80.544C124.884,79.264 126.323,78.624 128.166,78.624C130.023,78.624 131.46,79.255 132.477,80.516C133.494,81.777 134.002,83.559 134.002,85.861C134.002,88.127 133.484,89.897 132.45,91.172C131.415,92.447 129.979,93.084 128.144,93.084C126.293,93.084 124.856,92.449 123.832,91.179C122.808,89.908 122.296,88.136 122.296,85.861ZM126.048,85.861C126.048,88.007 126.209,89.516 126.531,90.388C126.853,91.259 127.398,91.695 128.166,91.695C128.926,91.695 129.467,91.261 129.789,90.394C130.111,89.528 130.272,88.017 130.272,85.861C130.272,83.706 130.111,82.19 129.789,81.314C129.467,80.438 128.926,80 128.166,80C127.398,80 126.853,80.438 126.531,81.314C126.209,82.19 126.048,83.706 126.048,85.861Z" style="fill-rule:nonzero;"/>
        </g>
        <g id="Ink" transform="matrix(1,0,0,1,32.4573,-46.63767)">
            <path id="path2023" d="M34.954,162.017L70.212,164.177L79.087,155.536L70.212,138.976L64.456,138.496L64.456,132.737L63.736,132.497L63.016,132.258L62.057,132.018L59.419,131.778L56.541,131.538L53.663,131.538L51.025,131.778L50.066,132.018L49.346,132.258L48.627,132.977L48.627,138.497L39.992,142.337L34.954,162.017Z"/>
            <path id="path2025" d="M63.016,143.537L69.972,139.218" style="fill:none;fill-rule:nonzero;"/>
            <path id="path2027" d="M69.972,163.697L62.777,143.777L40.471,142.817" style="fill:none;fill-rule:nonzero;"/>
            <path id="path2029" d="M64.456,138.497L64.456,132.737L63.976,132.258L62.057,132.018L59.419,131.778L56.541,131.538L53.663,131.778L51.025,131.778L50.066,132.018L49.346,132.258L48.867,132.497L48.627,132.737L48.627,138.498L48.867,138.738L49.346,138.978L50.066,139.218L51.265,139.457L53.663,139.697L59.659,139.697L62.057,139.457L63.016,139.218L63.975,138.978L64.455,138.738L64.455,138.497" style="fill:none;fill-rule:nonzero;"/>
            <path id="path2031" d="M64.456,132.977L64.216,133.217L63.737,133.456L63.497,133.456L62.777,133.696L62.297,133.937L61.577,133.937L60.857,134.177L60.138,134.177L60.857,134.416L61.337,134.416L62.056,134.656L62.536,134.656L63.015,134.896L63.495,135.136L63.976,135.377L64.456,135.617L64.456,132.977Z" style="fill:rgb(204,204,204);"/>
            <path id="path2033" d="M64.456,132.977L64.216,133.217L63.737,133.456L63.497,133.456L62.777,133.696L62.297,133.937L61.577,133.937L60.857,134.177L60.138,134.177L60.857,134.416L61.337,134.416L62.056,134.656L62.536,134.656L63.015,134.896L63.495,135.136L63.976,135.377L64.456,135.617L64.456,132.977" style="fill:none;fill-rule:nonzero;"/>
            <path id="path2035" d="M48.626,138.737L47.667,139.217L46.467,139.697L45.508,140.177L44.549,140.656L43.35,141.136L42.391,141.615L41.192,142.095L40.231,142.577L43.348,142.577L44.068,142.817L44.547,142.817L44.547,142.337L45.026,141.617L45.266,141.138L45.745,140.658L46.465,140.179L46.944,139.699L47.903,139.22L48.626,138.737Z" style="fill:rgb(204,204,204);"/>
            <path id="path2037" d="M62.777,142.817L63.257,142.817L63.497,143.057L63.737,143.296L63.737,144.256L63.497,144.495L63.257,144.495L63.017,144.735L62.777,144.735L62.537,144.495L62.297,144.495L62.057,144.256L62.057,143.297L62.297,143.058L62.537,142.818L62.777,142.818L62.777,142.817Z" style="fill:rgb(204,204,204);"/>
        </g>
        <g transform="matrix(0.15,0,0,0.15,85,10)">
            <g>
                <path d="M141.108,209.888C154.295,177.28 169.008,144.736 184.796,115.891C161.229,98.387 138.6,60.642 129.303,43.919C125.963,47.713 123.795,52.082 122.813,55.637C114.054,87.262 145.233,125.451 120.12,111.498C99.195,99.871 52.079,74.41 34.107,99.717C54.235,125.579 106.88,190.647 141.108,209.888L141.108,209.888Z" style="fill:rgb(221,85,44);fill-rule:nonzero;"/>
                <path d="M184.796,115.891C200.093,87.942 216.396,63.463 233.297,45.828C233.297,45.828 216.439,70.229 192.361,119.008C206.943,123.024 248.474,131.264 306.321,116.322C307.743,105.809 300.676,94.247 265.458,90.375C242.465,87.851 293.055,35.473 256.406,10.701C255.223,9.9 254.06,9.193 252.92,8.561C251.692,8.12 250.394,7.716 249.009,7.356C206.206,-3.813 200.273,68.765 183.193,53.162C155.592,27.95 138.171,33.841 129.303,43.919C138.6,60.642 161.229,98.387 184.796,115.891Z" style="fill:rgb(247,154,35);fill-rule:nonzero;"/>
                <path d="M106.682,303.838C116.344,274.892 127.968,242.372 141.108,209.888C106.88,190.647 54.235,125.579 34.107,99.717C30.514,104.773 28.058,111.825 27.24,121.469C22.851,173.271 76.292,211.622 65.638,218.627C51.546,227.894 23.497,196.366 12.442,216.398C28.465,236.982 61.104,274.175 106.682,303.838L106.682,303.838Z" style="fill:rgb(210,33,40);fill-rule:nonzero;"/>
                <path d="M254.756,192.118C227.697,182.467 283.032,156.585 301.001,129.127C303.3,125.616 305.677,121.078 306.321,116.322C248.474,131.264 206.943,123.024 192.361,119.008C179.896,144.265 165.502,176.092 150.491,214.466C166.125,221.151 229.961,245.846 320.128,245.973C335.287,206.488 280.437,201.274 254.756,192.118Z" style="fill:rgb(221,85,44);fill-rule:nonzero;"/>
                <path d="M117.137,309.049C133.037,314.004 185.721,328.805 241.674,326.577C249.191,306.225 221.088,304.239 218.799,287.916C217.027,275.286 292.756,298.53 317.122,252.605C318.354,250.282 319.315,248.091 320.128,245.973C229.961,245.846 166.125,221.151 150.491,214.466C139.521,242.51 128.235,273.983 117.137,309.049Z" style="fill:rgb(210,33,40);fill-rule:nonzero;"/>
                <path d="M117.137,309.049C109.992,331.619 102.944,355.731 96.102,381.213C93.675,390.248 91.277,399.451 88.912,408.856C142.018,426.387 190.92,408.896 192.578,387.218C192.592,387.046 192.56,386.919 192.57,386.754C193.834,363.793 159.42,376.52 160.234,362.716C161.052,348.81 220.315,362.635 238.643,332.821C240.048,330.535 240.964,328.505 241.674,326.577C185.721,328.805 133.037,314.004 117.137,309.049L117.137,309.049Z" style="fill:rgb(124,41,125);fill-rule:nonzero;"/>
                <path d="M12.442,216.398C11.668,217.802 10.97,219.424 10.374,221.363C0.082,254.813 72.859,299.748 62.957,309.544C54.032,318.37 42.4,298.2 28.056,306.531C26.484,307.447 24.889,308.601 23.251,310.281C7.03,326.9 22.997,374.777 69.021,400.333C58.281,436.395 47.589,476.684 37.122,518.819C40.919,517.489 45.463,516.156 46.594,512.574C48.292,505.593 58.788,463.112 75.829,405.48C75.829,405.48 78.94,393.674 84.633,374.225C89.898,356.239 97.379,331.71 106.682,303.838C61.104,274.175 28.465,236.982 12.442,216.398Z" style="fill:rgb(124,41,125);fill-rule:nonzero;"/>
            </g>
        </g>
    </g>
    <defs>
        <linearGradient id="_Linear1" x1="0" y1="0" x2="1" y2="0" gradientUnits="userSpaceOnUse" gradientTransform="matrix(43.273819,61.245383,-61.245383,43.273819,88.766714,32.541851)"><stop offset="0" style="stop-color:black;stop-opacity:1"/><stop offset="1" style="stop-color:white;stop-opacity:1"/></linearGradient>
    </defs>
</svg>
